<svg width="95" height="42" viewBox="0 0 95 42" fill="none" xmlns="http://www.w3.org/2000/svg">
<g clip-path="url(#clip0_345_165)">
<path d="M16.3003 29.1912C15.5459 29.82 14.6432 30.1355 13.5879 30.1355C12.2209 30.1355 11.1547 29.6557 10.385 28.6982C9.61752 27.7407 9.2316 26.402 9.2316 24.6864C9.2316 22.9708 9.6197 21.6518 10.3959 20.6856C11.1721 19.7193 12.2361 19.2373 13.5879 19.2373C14.5974 19.2373 15.4478 19.498 16.1389 20.0195C16.8301 20.541 17.3033 21.3035 17.5584 22.3048H20.4822C20.1682 20.4884 19.3855 19.1015 18.134 18.144C16.8824 17.1865 15.3649 16.7067 13.5858 16.7067C11.3662 16.7067 9.58699 17.4209 8.24826 18.8517C6.89644 20.2956 6.22054 22.2412 6.22054 24.6864C6.22054 27.1316 6.90298 29.0554 8.27006 30.4992C9.62188 31.9431 11.3945 32.6662 13.5858 32.6662C15.4063 32.6662 16.974 32.1381 18.2822 31.0777C19.6057 30.0194 20.3601 28.5185 20.5454 26.5729H17.663C17.506 27.6881 17.0503 28.5602 16.2959 29.1912H16.3003Z" fill="#262523"/>
<path d="M34.4604 29.4651C34.866 28.9852 35.5746 28.4725 36.5863 27.927L38.3742 26.9739C40.1446 26.0843 41.4354 25.1268 42.2465 24.1014C43.0597 23.076 43.4653 21.8293 43.4653 20.3591C43.4653 18.6545 42.8591 17.2741 41.6512 16.2224C40.4411 15.1707 38.7971 14.6427 36.7214 14.6427C34.4648 14.6427 32.7358 15.2277 31.5344 16.3977C30.333 17.5677 29.7421 19.1979 29.7596 21.2837H33.2809C33.2809 18.9262 34.3907 17.7452 36.6124 17.7452C37.6045 17.7452 38.3829 18.0038 38.941 18.5208C39.5014 19.0379 39.7805 19.7412 39.7805 20.6308C39.7805 21.4656 39.545 22.1645 39.0762 22.7276C38.6074 23.2907 37.8116 23.8429 36.6931 24.3884L34.7962 25.3678C32.7009 26.3297 31.3207 27.5457 30.6514 29.0159C30.1106 30.1947 29.8032 31.529 29.7312 33.0167L29.6506 34.4584H43.6811V31.3559H33.7409C33.8129 30.5759 34.0527 29.9449 34.4582 29.4651H34.4604Z" fill="#262523"/>
<path d="M52.9454 14.6449C50.4162 14.6449 48.4997 15.5169 47.1893 17.2588C45.8789 19.0007 45.2248 21.505 45.2248 24.7719C45.2248 28.0387 45.8789 30.5431 47.1893 32.2849C48.4975 34.0268 50.4162 34.8988 52.9454 34.8988C55.4746 34.8988 57.3955 34.029 58.7146 32.2849C60.0316 30.5431 60.6922 28.0387 60.6922 24.7719C60.6922 21.505 60.0337 19.0007 58.7146 17.2588C57.3955 15.5169 55.4725 14.6449 52.9454 14.6449ZM52.9454 31.792C50.3443 31.792 49.0448 29.4519 49.0448 24.7697C49.0448 20.0874 50.3443 17.7474 52.9454 17.7474C55.5466 17.7474 56.8722 20.0874 56.8722 24.7697C56.8722 29.4519 55.5618 31.792 52.9454 31.792Z" fill="#262523"/>
<path d="M64.1197 16.3999C62.9183 17.5699 62.3275 19.2001 62.3449 21.2859H65.8662C65.8662 18.9284 66.976 17.7474 69.1978 17.7474C70.1898 17.7474 70.9682 18.0059 71.5264 18.523C72.0867 19.0401 72.3658 19.7434 72.3658 20.633C72.3658 21.4678 72.1303 22.1667 71.6616 22.7298C71.1928 23.2929 70.3969 23.8451 69.2784 24.3906L67.3815 25.37C65.2862 26.3319 63.906 27.5479 63.2367 29.0181C62.696 30.1969 62.3885 31.5312 62.3166 33.0189L62.2359 34.4606H76.2664V31.3581H66.3262C66.3982 30.5781 66.638 29.9471 67.0436 29.4673C67.4491 28.9874 68.1577 28.4747 69.1694 27.9292L70.9573 26.9761C72.7277 26.0865 74.0185 25.129 74.8296 24.1036C75.6429 23.0782 76.0484 21.8315 76.0484 20.3613C76.0484 18.6567 75.4423 17.2763 74.2344 16.2246C73.0243 15.1729 71.3803 14.6449 69.3046 14.6449C67.0479 14.6449 65.3189 15.2299 64.1175 16.3999H64.1197Z" fill="#262523"/>
<path d="M94.5574 4.85977C94.4309 4.83567 81.7347 2.38828 64.7913 2.20862C64.704 2.20862 64.6168 2.20862 64.5274 2.20862C61.6646 1.74631 58.61 1.35411 55.3634 1.03422C38.5202 -0.630966 22.2112 0.212583 22.0477 0.221347C21.7468 0.236684 21.5157 0.495227 21.5331 0.79759C21.5484 1.09995 21.81 1.3322 22.1066 1.31467C22.2679 1.30591 38.4962 0.466743 55.2588 2.12098C55.8104 2.17575 56.3642 2.23272 56.9246 2.29407C49.8428 2.52632 43.0597 3.17706 36.6909 4.24409C27.6316 5.76248 19.3855 8.13318 12.1009 11.297C5.32005 11.9522 0 17.7058 0 24.6865C0 32.1053 6.00468 38.1394 13.3873 38.1394C14.2551 38.1394 15.1033 38.054 15.9275 37.894C29.1447 41.0031 40.3779 42.0001 49.3522 42.0001C54.9034 42.0001 59.5911 41.6188 63.3479 41.1193C73.8484 39.7214 79.3865 37.1995 79.8226 36.9935C81.5145 36.3472 83.0626 35.6417 84.4624 34.8748C84.7044 34.8879 84.9508 34.8967 85.2059 34.8967C87.408 34.8967 89.1697 34.3424 90.4867 33.2359C91.7862 32.147 92.4359 30.7053 92.4359 28.9086C92.4359 28.5186 92.3967 28.1461 92.3247 27.7912C92.6147 27.3026 92.8742 26.8052 93.0987 26.2925C95.1265 21.6935 93.7725 17.8504 93.6351 17.4867C92.1852 12.673 87.4734 8.77954 79.6307 5.91366C77.1277 4.99781 74.2954 4.18713 71.1622 3.47723C84.7044 4.07538 94.2391 5.91147 94.3481 5.93338C94.6424 5.99035 94.9302 5.79754 94.9869 5.49956C95.0436 5.20158 94.8517 4.91455 94.5552 4.85758L94.5574 4.85977ZM2.61642 24.6865C2.61642 18.7181 7.44807 13.8627 13.3873 13.8627C19.3266 13.8627 24.1583 18.7181 24.1583 24.6865C24.1583 30.6549 19.3266 35.5102 13.3873 35.5102C7.44807 35.5102 2.61642 30.6549 2.61642 24.6865ZM92.5994 17.822L92.6147 17.8636C92.6278 17.9008 94.0036 21.5642 92.0936 25.8718C92.0086 26.0624 91.9192 26.2487 91.8254 26.4349C91.7426 26.2881 91.6575 26.1457 91.5594 26.0077C90.9729 25.1816 90.1727 24.5506 89.1632 24.1168C90.9685 23.1922 91.8712 21.8031 91.8712 19.9516C91.8712 18.3193 91.2629 17.0266 90.0419 16.0735C88.8231 15.1204 87.1747 14.6449 85.099 14.6449C82.8773 14.6449 81.1679 15.1708 79.9665 16.2247C78.7651 17.2764 78.1481 18.7751 78.111 20.7163H81.6323C81.7413 18.6655 82.8882 17.6401 85.0729 17.6401C86.0845 17.6401 86.8782 17.8723 87.456 18.3347C88.0338 18.797 88.3238 19.4367 88.3238 20.254C88.3238 22.0507 87.1943 22.949 84.9377 22.949H83.5292V25.644H84.9638C86.1194 25.644 87.0221 25.9156 87.6718 26.4612C88.3216 27.0068 88.6465 27.778 88.6465 28.775C88.6465 29.6996 88.3303 30.4358 87.698 30.9791C87.0657 31.5247 86.1979 31.7964 85.0969 31.7964C82.5502 31.7964 81.2507 30.5453 81.1962 28.041H77.6488C77.6488 30.2013 78.2942 31.884 79.5849 33.0891C80.3677 33.8209 81.3663 34.3292 82.5785 34.6184C81.5908 35.0983 80.5377 35.554 79.4149 35.9813L79.3756 35.9988C79.3211 36.0251 73.7111 38.6478 63.1407 40.0478C53.7085 41.2967 38.3523 41.7897 18.1143 37.2784C23.1706 35.3546 26.7747 30.4401 26.7747 24.6952C26.7747 17.7913 21.5702 12.0858 14.8961 11.3299C31.8026 4.58809 50.7127 3.18144 64.4119 3.29976C77.3239 5.39658 90.1269 9.56393 92.5994 17.822Z" fill="#262523"/>
</g>
<defs>
<clipPath id="clip0_345_165">
<rect width="95" height="42" fill="white"/>
</clipPath>
</defs>
</svg>
