<svg width="68" height="68" viewBox="0 0 68 68" fill="none" xmlns="http://www.w3.org/2000/svg">
<g clip-path="url(#clip0_345_171)">
<path d="M67.1149 33.4025L53.9103 33.3848C49.0003 33.3789 44.2968 31.4225 40.8296 27.9465L40.2897 27.4036C36.8284 23.9335 34.8868 19.233 34.8868 14.3318V0.911766C34.8868 0.525218 34.6537 0.159325 34.2849 0.044246C33.6741 -0.147553 33.1164 0.303912 33.1164 0.885209V14.3318C33.1164 19.2507 31.16 23.966 27.6782 27.439L27.1913 27.9259C23.7153 31.393 19.003 33.3375 14.0959 33.3287L0.89126 33.311C0.557825 33.311 0.230292 33.488 0.0945577 33.7949C-0.197566 34.447 0.271603 35.0814 0.888309 35.0814L14.5798 35.0991C19.4898 35.105 24.1933 37.0614 27.6604 40.5374L27.7136 40.5905C31.1748 44.0606 33.1164 48.7611 33.1164 53.6623V67.0646C33.1164 67.4984 33.4085 67.9026 33.8393 67.9793C34.4 68.0797 34.8868 67.6518 34.8868 67.1089V53.6623C34.8868 48.7434 36.8432 44.0281 40.3251 40.5551C43.801 37.0879 48.5134 35.1434 53.4205 35.1523L67.112 35.17C67.4454 35.17 67.7729 34.9929 67.9087 34.686C68.2008 34.0339 67.7316 33.3995 67.1149 33.3995V33.4025Z" fill="#262523"/>
</g>
<defs>
<clipPath id="clip0_345_171">
<rect width="68" height="68" fill="white"/>
</clipPath>
</defs>
</svg>
