<svg width="382" height="72" viewBox="0 0 382 72" fill="none" xmlns="http://www.w3.org/2000/svg">
<path d="M42.528 34.1918L53.952 1.64782H72.768V69.9998H60.384V49.1678C60.384 36.3678 60.512 25.0718 60.768 15.2798C59.36 20.0798 57.632 25.3278 55.584 31.0238L41.76 69.9998H31.104L17.184 31.0238C14.752 23.9198 13.056 18.7358 12.096 15.4718C12.352 25.1998 12.48 36.4318 12.48 49.1678V69.9998H0V1.64782H18.816L30.624 34.8638C31.392 37.1038 33.344 43.2798 36.48 53.3918C38.528 46.2878 40.544 39.8878 42.528 34.1918Z" fill="#262523"/>
<path d="M147.389 69.9998H133.661L128.285 54.9278H98.3333L93.0532 69.9998H79.7093L105.725 1.64782H120.893L147.389 69.9998ZM104.861 36.4958L102.269 43.8878H124.349L121.661 36.4958C119.421 30.7998 116.605 22.9918 113.213 13.0718C110.525 21.0078 107.741 28.8158 104.861 36.4958Z" fill="#262523"/>
<path d="M139.87 1.64782H196.702V13.2638H174.814V69.9998H161.758V13.2638H139.87V1.64782Z" fill="#262523"/>
<path d="M276.043 29.1038V1.64782H289.003V69.9998H276.043V40.8158H218.126V69.9998H205.166V1.64782H218.126V29.1038H276.043Z" fill="#262523"/>
<path d="M315 69.9998H302.04V1.64782H315V69.9998Z" fill="#262523"/>
<path d="M354.163 71.5358C344.883 71.5358 337.683 69.4558 332.563 65.2958C327.507 61.1358 324.947 55.1838 324.883 47.4398H337.651C337.715 52.3038 339.155 55.7918 341.971 57.9038C344.851 60.0158 349.043 61.0718 354.547 61.0718C359.027 61.0718 362.451 60.2398 364.819 58.5758C367.188 56.8478 368.371 54.3838 368.371 51.1838C368.371 48.4958 367.347 46.4478 365.299 45.0398C363.315 43.6318 359.667 42.3838 354.355 41.2958L348.595 40.1438C333.939 37.3918 326.611 30.4798 326.611 19.4078C326.611 13.5198 328.851 8.84782 333.331 5.39182C337.811 1.87182 344.019 0.111816 351.955 0.111816C360.979 0.111816 367.795 2.03182 372.403 5.87182C377.075 9.71182 379.539 15.0878 379.795 21.9998H367.219C366.963 18.0958 365.651 15.2158 363.283 13.3598C360.979 11.5038 357.267 10.5758 352.147 10.5758C348.18 10.5758 345.139 11.3118 343.027 12.7838C340.915 14.2558 339.859 16.3358 339.859 19.0238C339.859 21.7758 340.819 23.8878 342.739 25.3598C344.723 26.8318 348.211 28.0798 353.203 29.1038L359.155 30.2558C367.155 31.8558 372.915 34.2558 376.435 37.4558C380.019 40.5918 381.811 44.9438 381.811 50.5118C381.811 57.1678 379.379 62.3518 374.515 66.0638C369.651 69.7118 362.867 71.5358 354.163 71.5358Z" fill="#262523"/>
</svg>
