<svg width="729" height="69" viewBox="0 0 729 69" fill="none" xmlns="http://www.w3.org/2000/svg">
<path d="M39.168 35.9759L51.264 0.647949H64.704L40.224 69H25.056L0 0.647949H13.824L26.208 35.9759C29.088 44.6799 31.264 51.784 32.736 57.2879C34.4 50.952 36.544 43.8479 39.168 35.9759Z" fill="#262523"/>
<path d="M124.444 69H110.716L105.34 53.9279H75.3877L70.1077 69H56.7637L82.7797 0.647949H97.9478L124.444 69ZM81.9157 35.4959L79.3237 42.8879H101.404L98.7158 35.4959C96.4758 29.7999 93.6598 21.9919 90.2678 12.0719C87.5798 20.0079 84.7957 27.8159 81.9157 35.4959Z" fill="#262523"/>
<path d="M176.579 18.5039V0.647949H189.059V69H174.659L155.651 38.568C150.467 30.4399 146.403 23.5919 143.459 18.0239C143.715 25.1919 143.843 36.2319 143.843 51.144V69H131.363V0.647949H145.763L164.867 31.0799C170.563 40.2959 174.595 47.144 176.963 51.624C176.707 42.088 176.579 31.0479 176.579 18.5039Z" fill="#262523"/>
<path d="M202.189 0.647949H228.301C239.245 0.647949 247.693 3.68795 253.645 9.76795C259.598 15.9119 262.573 24.264 262.573 34.824C262.573 45.3839 259.598 53.7039 253.645 59.784C247.693 65.9279 239.245 69 228.301 69H202.189V0.647949ZM215.149 57.8639H228.109C234.829 57.8639 240.014 55.9119 243.661 52.0079C247.31 48.0399 249.133 42.312 249.133 34.824C249.133 27.336 247.31 21.6399 243.661 17.7359C240.014 13.7679 234.829 11.7839 228.109 11.7839H215.149V57.8639Z" fill="#262523"/>
<path d="M363.102 0.647949V12.2639H285.788V28.3919H359.55V39.528H285.788V57.3839H362.91V69H272.828V0.647949H363.102Z" fill="#262523"/>
<path d="M439.57 28.1999L446.77 0.647949H460.21L441.298 69H426.706L419.41 40.584C416.402 28.1039 414.546 20.0399 413.842 16.3919C412.05 24.9039 410.194 32.9679 408.274 40.584L400.978 69H386.482L367.474 0.647949H381.01L388.114 28.1999C391.442 41.5119 393.522 50.184 394.354 54.216C396.402 44.616 398.354 35.9119 400.21 28.1039L407.218 0.647949H420.562L427.57 28.1039C429.362 35.3999 431.282 44.136 433.33 54.312C434.674 48.36 436.754 39.6559 439.57 28.1999Z" fill="#262523"/>
<path d="M522.574 69H508.846L503.47 53.9279H473.518L468.238 69H454.894L480.91 0.647949H496.078L522.574 69ZM480.046 35.4959L477.454 42.8879H499.534L496.846 35.4959C494.606 29.7999 491.79 21.9919 488.398 12.0719C485.71 20.0079 482.926 27.8159 480.046 35.4959Z" fill="#262523"/>
<path d="M542.453 0.647949V57.3839H574.997V69H529.493V0.647949H542.453Z" fill="#262523"/>
<path d="M596.967 0.647949V57.3839H629.511V69H584.007V0.647949H596.967Z" fill="#262523"/>
<path d="M728.828 0.647949V12.2639H651.481V28.3919H725.276V39.528H651.481V57.3839H728.636V69H638.521V0.647949H728.828Z" fill="#262523"/>
</svg>
